<?xml version="1.0" encoding="utf-8"?>
<!-- Generator: Adobe Illustrator 16.2.0, SVG Export Plug-In . SVG Version: 6.00 Build 0)  -->
<!DOCTYPE svg PUBLIC "-//W3C//DTD SVG 1.1//EN" "http://www.w3.org/Graphics/SVG/1.1/DTD/svg11.dtd">
<svg version="1.1" id="Layer_1" xmlns="http://www.w3.org/2000/svg" xmlns:xlink="http://www.w3.org/1999/xlink" x="0px" y="0px"
	 width="273px" height="210px" viewBox="0 0 273 210" enable-background="new 0 0 273 210" xml:space="preserve">
<polyline fill="none" stroke="#000000" stroke-miterlimit="10" points="105,31.5 105,10.5 31.5,10.5 31.5,31.5 "/>
<polyline fill="none" stroke="#000000" stroke-miterlimit="10" points="126,31.5 126,10.5 199.5,10.5 199.5,31.5 "/>
<polyline fill="none" stroke="#000000" stroke-miterlimit="10" points="105,73.5 105,94.5 31.5,94.5 31.5,73.5 "/>
<polyline fill="none" stroke="#000000" stroke-miterlimit="10" points="126,73.5 126,94.5 199.5,94.5 199.5,73.5 "/>
<g>
	<g>
		<polyline fill="none" stroke="#000000" stroke-miterlimit="10" points="220.5,136.5 126,136.5 126,148.491 		"/>
		<g>
			<path d="M126,146.696l3.603-2.191l0.082,0.123l-2.333,5.875c-0.45,2.047-0.9,4.094-1.351,6.141
				c-0.45-2.047-0.9-4.094-1.351-6.141l-2.333-5.875l0.062-0.123L126,146.696z"/>
		</g>
	</g>
</g>
<rect x="10.5" y="31.5" fill="#FFFFFF" stroke="#000000" stroke-miterlimit="10" width="42" height="42"/>
<rect x="94.5" y="31.5" fill="#FFFFFF" stroke="#000000" stroke-miterlimit="10" width="42" height="42"/>
<rect x="94.1" y="157.5" fill="#FFFFFF" stroke="#000000" stroke-miterlimit="10" width="42" height="42"/>
<rect x="178.5" y="31.5" fill="#FFFFFF" stroke="#000000" stroke-miterlimit="10" width="42" height="42"/>
<rect x="220.5" y="115.5" fill="#FFFFFF" stroke="#000000" stroke-miterlimit="10" width="42" height="42"/>
<g>
	<g>
		<polyline fill="none" stroke="#000000" stroke-miterlimit="10" points="68.25,94.5 68.25,115.5 105,115.5 105,148.491 		"/>
		<g>
			<circle cx="68.25" cy="94.5" r="1.88"/>
		</g>
		<g>
			<path d="M105,146.696l3.603-2.191l0.082,0.123l-2.333,5.875c-0.45,2.047-0.9,4.094-1.351,6.141
				c-0.45-2.047-0.9-4.094-1.351-6.141l-2.333-5.875l0.062-0.123L105,146.696z"/>
		</g>
	</g>
</g>
<g>
	<g>
		<polyline fill="none" stroke="#000000" stroke-miterlimit="10" points="162.75,94.5 162.75,115.5 115.5,115.51 115.5,148.491 		
			"/>
		<g>
			<circle cx="162.75" cy="94.5" r="1.88"/>
		</g>
		<g>
			<path d="M115.5,146.696l3.603-2.191l0.082,0.123l-2.333,5.875c-0.45,2.047-0.9,4.094-1.351,6.141
				c-0.45-2.047-0.9-4.094-1.351-6.141l-2.333-5.875l0.062-0.123L115.5,146.696z"/>
		</g>
	</g>
</g>
<text transform="matrix(1 0 0 1 23.457 61.1538)" fill="#231F20" font-family="'Inter-Regular'" font-size="24">A</text>
<text transform="matrix(1 0 0 1 107.7642 61.1538)" font-family="'Inter-Regular'" font-size="24">B</text>
<text transform="matrix(1 0 0 1 190.8438 61.1538)" font-family="'Inter-Regular'" font-size="24">C</text>
<text transform="matrix(1 0 0 1 232.9453 145.1543)" font-family="'Inter-Regular'" font-size="24">D</text>
<text transform="matrix(1 0 0 1 107.9946 187.1543)" font-family="'Inter-Regular'" font-size="24">E</text>
</svg>
