<?xml version="1.0" encoding="utf-8"?>
<!-- Generator: Adobe Illustrator 16.2.0, SVG Export Plug-In . SVG Version: 6.00 Build 0)  -->
<!DOCTYPE svg PUBLIC "-//W3C//DTD SVG 1.1//EN" "http://www.w3.org/Graphics/SVG/1.1/DTD/svg11.dtd">
<svg version="1.1" id="Layer_1" xmlns="http://www.w3.org/2000/svg" xmlns:xlink="http://www.w3.org/1999/xlink" x="0px" y="0px"
	 width="273px" height="210px" viewBox="0 0 273 210" enable-background="new 0 0 273 210" xml:space="preserve">
<polyline fill="none" stroke="#000000" stroke-miterlimit="10" points="105,31.5 105,10.5 31.5,10.5 31.5,31.5 "/>
<polyline fill="none" stroke="#000000" stroke-miterlimit="10" points="126,31.5 126,10.5 199.5,10.5 199.5,31.5 "/>
<polyline fill="none" stroke="#000000" stroke-miterlimit="10" points="105,73.5 105,94.5 31.5,94.5 31.5,73.5 "/>
<polyline fill="none" stroke="#000000" stroke-miterlimit="10" points="126,73.5 126,94.5 199.5,94.5 199.5,73.5 "/>
<g>
	<g>
		<polyline fill="none" stroke="#000000" stroke-miterlimit="10" points="220.5,136.5 126,136.5 126,148.491 		"/>
		<g>
			<path d="M126,146.696l3.603-2.191l0.082,0.123l-2.333,5.875c-0.45,2.047-0.9,4.094-1.351,6.141
				c-0.45-2.047-0.9-4.094-1.351-6.141l-2.333-5.875l0.062-0.123L126,146.696z"/>
		</g>
	</g>
</g>
<rect x="10.5" y="31.5" fill="#FFFFFF" stroke="#000000" stroke-miterlimit="10" width="42" height="42"/>
<rect x="94.5" y="31.5" fill="#FFFFFF" stroke="#000000" stroke-miterlimit="10" width="42" height="42"/>
<rect x="94.1" y="157.5" fill="#FFFFFF" stroke="#000000" stroke-miterlimit="10" width="42" height="42"/>
<rect x="178.5" y="31.5" fill="#FFFFFF" stroke="#000000" stroke-miterlimit="10" width="42" height="42"/>
<rect x="220.5" y="115.5" fill="#FFFFFF" stroke="#000000" stroke-miterlimit="10" width="42" height="42"/>
<g>
	<g>
		<polyline fill="none" stroke="#000000" stroke-miterlimit="10" points="68.25,94.5 68.25,115.5 105,115.5 105,148.491 		"/>
		<g>
			<circle cx="68.25" cy="94.5" r="1.88"/>
		</g>
		<g>
			<path d="M105,146.696l3.603-2.191l0.082,0.123l-2.333,5.875c-0.45,2.047-0.9,4.094-1.351,6.141
				c-0.45-2.047-0.9-4.094-1.351-6.141l-2.333-5.875l0.062-0.123L105,146.696z"/>
		</g>
	</g>
</g>
<g>
	<g>
		<polyline fill="none" stroke="#000000" stroke-miterlimit="10" points="162.75,94.5 162.75,115.5 115.5,115.51 115.5,148.491 		
			"/>
		<g>
			<circle cx="162.75" cy="94.5" r="1.88"/>
		</g>
		<g>
			<path d="M115.5,146.696l3.603-2.191l0.082,0.123l-2.333,5.875c-0.45,2.047-0.9,4.094-1.351,6.141
				c-0.45-2.047-0.9-4.094-1.351-6.141l-2.333-5.875l0.062-0.123L115.5,146.696z"/>
		</g>
	</g>
</g>
<g>
	<path fill="#231F20" d="M24.071,61.154l6.414-17.469h2.184l6.415,17.469h-2.218l-1.757-4.947h-7.063l-1.757,4.947H24.071z
		 M34.443,54.331l-2.798-7.882h-0.137l-2.797,7.882H34.443z"/>
</g>
<g>
	<path d="M109.88,43.685h6.107c3.651,0,5.356,2.081,5.356,4.64c0,2.252-1.331,3.242-2.832,3.651v0.171
		c1.604,0.102,3.514,1.604,3.514,4.367c0,2.627-1.706,4.64-5.834,4.64h-6.312V43.685z M115.919,51.362
		c1.911,0,3.412-1.194,3.412-3.037c0-1.535-1.024-2.763-3.344-2.763h-3.992v5.8H115.919z M116.192,59.277
		c2.764,0,3.821-1.228,3.821-2.763c0-1.774-1.433-3.31-3.719-3.31h-4.299v6.072H116.192z"/>
</g>
<g>
	<path d="M204.9,49.144c-0.512-2.423-2.594-3.719-4.913-3.719c-3.173,0-5.664,2.456-5.664,6.994s2.491,6.994,5.664,6.994
		c2.319,0,4.401-1.296,4.913-3.719h2.115c-0.648,3.582-3.514,5.698-7.028,5.698c-4.47,0-7.711-3.446-7.711-8.974
		s3.241-8.974,7.711-8.974c3.515,0,6.38,2.116,7.028,5.698H204.9z"/>
</g>
<g>
	<path d="M235.061,145.154v-17.469h5.631c5.083,0,8.086,3.275,8.086,8.699c0,5.459-3.003,8.77-8.325,8.77H235.061z M240.315,143.277
		c4.333,0,6.414-2.627,6.414-6.893c0-4.23-2.081-6.822-6.175-6.822h-3.378v13.715H240.315z"/>
</g>
<g>
	<path d="M110.11,169.686h10.543v1.877h-8.428v5.902h7.882v1.875h-7.882v5.938h8.564v1.877H110.11V169.686z"/>
</g>
</svg>
