<?xml version="1.0" encoding="utf-8"?>
<!-- Generator: Adobe Illustrator 16.2.0, SVG Export Plug-In . SVG Version: 6.00 Build 0)  -->
<!DOCTYPE svg PUBLIC "-//W3C//DTD SVG 1.1//EN" "http://www.w3.org/Graphics/SVG/1.1/DTD/svg11.dtd">
<svg version="1.1" id="Layer_1" xmlns="http://www.w3.org/2000/svg" xmlns:xlink="http://www.w3.org/1999/xlink" x="0px" y="0px"
	 width="288px" height="216px" viewBox="0 0 288 216" enable-background="new 0 0 288 216" xml:space="preserve">
<polyline fill="none" stroke="#000000" stroke-miterlimit="10" points="102.1,50 102.1,79 29,79 29,50 "/>
<polyline fill="none" stroke="#000000" stroke-miterlimit="10" points="196.2,50 196.2,79 123.1,79 123.1,50 "/>
<g>
	<g>
		<polyline fill="none" stroke="#000000" stroke-miterlimit="10" points="238,137 123.1,137 123.1,156.991 		"/>
		<g>
			<path d="M123.1,155.196l3.603-2.191l0.082,0.123l-2.333,5.875c-0.45,2.047-0.9,4.094-1.351,6.141
				c-0.45-2.047-0.9-4.094-1.351-6.141l-2.333-5.875l0.062-0.123L123.1,155.196z"/>
		</g>
	</g>
</g>
<rect x="8" y="8" fill="#FFFFFF" stroke="#000000" stroke-miterlimit="10" width="42" height="42"/>
<rect x="91.6" y="8" fill="#FFFFFF" stroke="#000000" stroke-miterlimit="10" width="42" height="42"/>
<rect x="91.6" y="166" fill="#FFFFFF" stroke="#000000" stroke-miterlimit="10" width="42" height="42"/>
<rect x="175.2" y="8" fill="#FFFFFF" stroke="#000000" stroke-miterlimit="10" width="42" height="42"/>
<rect x="238" y="116" fill="#FFFFFF" stroke="#000000" stroke-miterlimit="10" width="42" height="42"/>
<line fill="none" stroke="#000000" stroke-miterlimit="10" x1="50" y1="29" x2="91.6" y2="29"/>
<line fill="none" stroke="#000000" stroke-miterlimit="10" x1="133.6" y1="29" x2="175.2" y2="29"/>
<g>
	<g>
		<polyline fill="none" stroke="#000000" stroke-miterlimit="10" points="65.55,79 65.55,108 102.1,108 102.1,156.991 		"/>
		<g>
			<circle cx="65.55" cy="79" r="1.88"/>
		</g>
		<g>
			<path d="M102.1,155.196l3.603-2.191l0.082,0.123l-2.333,5.875c-0.45,2.047-0.9,4.094-1.351,6.141
				c-0.45-2.047-0.9-4.094-1.351-6.141l-2.333-5.875l0.062-0.123L102.1,155.196z"/>
		</g>
	</g>
</g>
<g>
	<g>
		<polyline fill="none" stroke="#000000" stroke-miterlimit="10" points="159.65,79 159.65,108 112.6,108.009 112.6,156.991 		"/>
		<g>
			<circle cx="159.65" cy="79" r="1.88"/>
		</g>
		<g>
			<path d="M112.6,155.196l3.603-2.191l0.082,0.123l-2.333,5.875c-0.45,2.047-0.9,4.094-1.351,6.141
				c-0.45-2.047-0.9-4.094-1.351-6.141l-2.333-5.875l0.062-0.123L112.6,155.196z"/>
		</g>
	</g>
</g>
<g>
	<path fill="#231F20" d="M21.571,37.654l6.414-17.469h2.184l6.415,17.469h-2.218l-1.757-4.947h-7.063l-1.757,4.947H21.571z
		 M31.943,30.831l-2.798-7.882h-0.137l-2.797,7.882H31.943z"/>
</g>
<g>
	<path d="M106.979,20.185h6.107c3.65,0,5.356,2.081,5.356,4.64c0,2.252-1.331,3.242-2.832,3.651v0.171
		c1.604,0.102,3.514,1.604,3.514,4.367c0,2.627-1.706,4.64-5.834,4.64h-6.312V20.185z M113.018,27.862
		c1.911,0,3.412-1.194,3.412-3.037c0-1.535-1.024-2.763-3.344-2.763h-3.992v5.8H113.018z M113.291,35.777
		c2.764,0,3.821-1.228,3.821-2.763c0-1.774-1.433-3.31-3.719-3.31h-4.299v6.072H113.291z"/>
</g>
<g>
	<path d="M201.601,25.644c-0.513-2.423-2.593-3.719-4.913-3.719c-3.174,0-5.664,2.456-5.664,6.994s2.49,6.994,5.664,6.994
		c2.32,0,4.4-1.296,4.913-3.719h2.115c-0.648,3.582-3.515,5.698-7.028,5.698c-4.47,0-7.711-3.446-7.711-8.974
		s3.241-8.974,7.711-8.974c3.514,0,6.38,2.116,7.028,5.698H201.601z"/>
</g>
<g>
	<path d="M252.561,145.654v-17.469h5.631c5.083,0,8.086,3.275,8.086,8.699c0,5.459-3.003,8.77-8.325,8.77H252.561z M257.815,143.777
		c4.333,0,6.414-2.627,6.414-6.893c0-4.23-2.081-6.822-6.175-6.822h-3.378v13.715H257.815z"/>
</g>
<g>
	<path d="M107.61,178.186h10.543v1.877h-8.428v5.902h7.882v1.875h-7.882v5.938h8.564v1.877H107.61V178.186z"/>
</g>
</svg>
